<?xml version="1.0" encoding="utf-8"?>
<!-- Generator: Adobe Illustrator 22.0.1, SVG Export Plug-In . SVG Version: 6.00 Build 0)  -->
<svg version="1.1" id="Layer_1" xmlns="http://www.w3.org/2000/svg" xmlns:xlink="http://www.w3.org/1999/xlink" x="0px" y="0px"
	 viewBox="0 0 500 500" style="enable-background:new 0 0 500 500;" xml:space="preserve">
<style type="text/css">
	.st0{opacity:0.3;enable-background:new    ;}
</style>
<title>360_2</title>
<path d="M250,500C111.8,500,0,388,0,250S111.8,0,250,0s250,112,250,250C499.7,388,388,499.7,250,500z M250,12.3
	C118.7,12.3,12.3,118.7,12.3,250S118.7,487.7,250,487.7S487.7,381.3,487.7,250l0,0C487.7,118.7,381.3,12.3,250,12.3L250,12.3z"/>
<path d="M253.7,498.4c-73.8,0-134-111.2-134-247.6S179.9,2.9,253.7,2.9s134,111.2,134,247.9S327.5,498.4,253.7,498.4z M253.7,9.1
	c-70.3,0-127.8,108.3-127.8,241.4S183.2,492,253.7,492s127.8-108.3,127.8-241.4S324.1,9.1,253.7,9.1L253.7,9.1z"/>
<path d="M251.1,381C116.3,381,7,322.2,7,249.7s109.6-131.3,244.1-131.3s244.1,58.8,244.1,131.3S385.8,381,251.1,381z M251.1,121.4
	c-132.9,0-241.2,57.5-241.2,128.3s108.3,128.3,241.2,128.3s241.2-57.5,241.2-128.3S384.2,121.4,251.1,121.4z"/>
<ellipse class="st0" cx="251.1" cy="249.7" rx="242.8" ry="129.7"/>
<path d="M207.2,291.4c-4.5,4-10.7,6.1-16.8,5.9c-6.1,0.3-12.3-2.1-16.8-6.1c-4-4-6.4-8.8-6.4-17.4v-6.1h15.5v6.7
	c0,5.9,3.5,8.8,7.8,8.8c2.1,0,4.3-1.1,5.6-2.7c2.1-2.7,2.4-8.8,2.4-15.5c0-7-0.3-12.3-2.4-15.2c-1.3-1.9-3.5-2.9-5.9-2.7H185V234
	h5.1c1.9,0,3.7-0.5,5.1-2.1c2.4-2.7,2.4-7.8,2.4-13.1c0-5.3-0.3-9.9-2.1-12.3c-1.3-1.6-3.2-2.4-5.1-2.4c-4,0-7,2.7-7,8.3v7.5h-15.5
	v-5.9c-0.5-6.4,1.9-12.8,6.4-17.4c4.3-4,10.2-6.1,16-5.9c5.9-0.3,11.8,1.9,16,5.9c4.8,4.8,6.7,11.5,6.7,21.7c0,7-0.3,12-2.7,16.6
	c-1.3,2.4-3.2,4.5-5.6,6.1c2.4,1.6,4.5,3.7,5.9,6.4c2.7,5.1,3.2,10.2,3.2,19.3C214.2,277.8,213.9,285,207.2,291.4z"/>
<path d="M267.9,289c-4,5.9-11,8.3-18.7,8.3c-8.3,0-14.4-3.2-18.2-8.3c-4-5.9-5.3-11.8-5.3-24.6c0-8.6,1.6-16.8,4.3-24.9l18.4-48.1
	h16l-17.1,42.2c1.9-1.3,4.3-1.9,6.4-1.9c5.3-0.3,10.4,2.1,13.9,6.4c3.7,4.8,5.3,10.4,5.3,25.9C273,278.6,271.4,284.2,267.9,289z
	 M255.1,247.9c-1.3-1.6-3.5-2.7-5.6-2.7c-2.1,0-4.3,1.1-5.6,2.7c-2.4,3.2-2.4,10.4-2.4,16.8s-0.3,13.1,2.4,16.6
	c1.3,1.6,3.5,2.7,5.6,2.7s4.3-0.8,5.6-2.7c2.4-3.2,2.4-10.2,2.4-16.6C257.5,258.3,257.5,251.1,255.1,247.9z"/>
<path d="M324.9,291.4c-4.5,4-10.4,6.4-16.6,6.1c-6.1,0.3-12-2.1-16.8-6.1c-4.5-4.5-7-11-6.7-17.4v-59.9c-0.5-6.4,1.9-12.8,6.7-17.4
	c4.5-4,10.7-6.4,16.8-6.1c6.1-0.3,12,2.1,16.6,6.1c4.5,4.5,7,11,6.7,17.4v59.9C331.8,280.5,329.4,286.9,324.9,291.4z M316,213.6
	c0-5.9-3.5-8.8-7.8-8.8s-7.8,2.9-7.8,8.8v61c0,5.9,3.5,8.8,7.8,8.8s7.8-2.9,7.8-8.8V213.6z"/>
</svg>
