<?xml version="1.0" encoding="utf-8"?>
<!-- Generator: Adobe Illustrator 22.0.1, SVG Export Plug-In . SVG Version: 6.00 Build 0)  -->
<svg version="1.1" id="Layer_1" xmlns="http://www.w3.org/2000/svg" xmlns:xlink="http://www.w3.org/1999/xlink" x="0px" y="0px"
	 viewBox="0 0 500 500" style="enable-background:new 0 0 500 500;" xml:space="preserve">
<title>binoculars</title>
<path d="M500,303.4v24.8c-0.4,1.9-1,3.9-1.3,5.8c-2.7,18.7-10.4,36.4-22.3,51.1c-27.6,33.6-63.4,46.3-106,38.7s-77.2-43.9-84.8-87.3
	c-2.1-11.9-1.5-23.9-1.7-35.8c-0.3-12-8.1-27.8-22.6-29.5c-5.5-0.8-11.1-1.1-16.7-0.9c-9.9,0.6-18.7,3.4-23.6,12.9
	c-3.2,5.7-5,12.1-5.2,18.7c0.5,10.5,0.2,21-1.1,31.5c-7.7,47.3-43.3,84.2-90.4,91.4c-50.8,7.8-100-21.3-117.6-69.5
	c-2.8-8.9-5.1-17.9-6.8-27v-24.8c0.5-1.9,1-3.9,1.3-5.8c2.1-13.2,7-25.7,14.4-36.8c2.9-4.2,15.5-24.2,38.1-34.5
	c11.7-5.3,24-9.2,36.6-11.6c8.1-1.6,19.1-0.5,24.9-0.5c-10.5-2.9-21.4-4.6-32.3-5.2c-14.6-0.4-34.5,6.8-34.5,6.8
	s28.3-43.1,44.6-67.5c11.3-16.8,25.7-27.9,45.5-31.5c14.2-2.9,28.9-1.8,42.5,3.1c19.5,7.3,36.4,17.5,40.5,40.5
	c0.2,0.9,0.4,2,1.5,2.2c1.1,0.2,1.6-0.7,2.2-1.5c2.1-2.7,4.2-5.5,6.4-8.2c10.6-13.5,26.4-13.7,37.4-0.6c1.8,2.2,3.2,4.6,4.8,6.9
	c0.9,1.3,1.5,3.7,3.5,3.4c1.9-0.4,1.7-2.8,2-4.4c0.4-3.8,1.4-7.6,3-11.1c3.3-6,7.9-11.1,13.4-15.2c23.7-17.1,49.6-20.7,77.2-11.5
	c10.4,3.3,19.5,9.6,26.2,18.3c12.2,16.3,23.4,33.3,35.1,50c7.5,10.8,17.3,24.7,17.3,24.7s-20.4-6-36.3-6.4
	c-18.3-0.5-32.5,4.8-30.7,7.3c0.9,1.3,8.3-0.7,19.6-0.2c16.2,0.8,32.8,7.7,42.8,12.1c9.2,4,29.6,23.7,31,25.8
	c6.4,9.3,13.4,18.1,16.7,29.3C497,288.5,498.1,296,500,303.4z M189.2,315.8c0.1-43.6-35.2-79-78.8-79.1c-43.6-0.1-79,35.2-79.1,78.8
	c-0.1,43.6,35.2,79,78.8,79.1c0,0,0.1,0,0.1,0C153.8,394.7,189.1,359.4,189.2,315.8z M468.9,313.7c0.1-41.9-33.9-75.9-75.8-76
	c-41.9-0.1-75.9,33.9-76,75.8c-0.1,41.8,33.7,75.8,75.5,76C434.6,389.6,468.8,355.7,468.9,313.7
	C468.9,313.7,468.9,313.7,468.9,313.7L468.9,313.7z M250,235.5c6.8,0.2,13.4-2,18.7-6.3c5.5-4.7,5.5-10.6,0-15.3
	c-10.9-9.5-27.1-9.5-38.1-0.2c-5.8,4.7-5.7,11.2,0.2,15.8C236.3,233.6,243.1,235.7,250,235.5L250,235.5z"/>
<path d="M374.3,106.5c-31.8-8.1-61.4-4.1-88,15.9c-0.4-0.7-0.7-1-0.6-1.2c2.6-9.1,0.3-17.8-1.1-26.7c-1.8-11.2,4.2-19.5,12.9-25.8
	c9.5-7.3,21.9-9.5,33.3-5.8c9.6,2.7,16.1,11.5,16,21.4c-0.4,2.7,1.5,5.2,4.1,5.7c7.7,2.5,14.8,6.7,20.7,12.4
	C373.1,103.3,374,104.8,374.3,106.5z"/>
<path d="M125.8,106.2c2.9-5.8,8-8.9,13.2-11.7c3.4-2.1,7.1-3.7,10.9-4.9c2-0.3,3.5-2.2,3.2-4.2c0,0,0-0.1,0-0.1
	c-0.8-11.9,8-21.2,20-23.6c17.4-3.4,36.1,7.2,41.3,23.7c1.1,3.3,1.2,7,0.2,10.3c-2.6,7.7-2.8,16.1-0.5,23.9c0.3,0.8,0.8,1.9-0.2,2.6
	c-1.1,0.6-1.8-0.4-2.5-1c-8.9-6.6-18.9-11.6-29.5-14.7c-10.2-3-20.9-4.2-31.5-3.7C142.1,103,133.8,104.1,125.8,106.2z"/>
</svg>
