<?xml version="1.0" encoding="utf-8"?>
<svg version="1.1" type="eye" class="filled-svg" xmlns="http://www.w3.org/2000/svg" xmlns:xlink="http://www.w3.org/1999/xlink" viewBox="0 0 96 96"><g id="XMLID_1_"><path id="XMLID_6_" class="st0" d="M48.5,14C19.8,14,2.7,48.1,2.7,48.1s17.1,34.1,45.8,34.1c28.1,0,45.2-34.1,45.2-34.1 S76.6,14,48.5,14z M48.2,71c-12.5,0-22.8-10.1-22.8-22.8c0-12.5,10.2-22.8,22.8-22.8S71,35.5,71,48.1S60.8,71,48.2,71z M59.5,48.1 c0,6.3-5,11.3-11.3,11.3s-11.3-5-11.3-11.3s5-11.3,11.3-11.3S59.5,41.8,59.5,48.1z"/></g></svg>