<?xml version="1.0" encoding="utf-8"?>
<svg version="1.1" id="Layer_1" xmlns="http://www.w3.org/2000/svg" xmlns:xlink="http://www.w3.org/1999/xlink" x="0px" y="0px"
	 viewBox="0 0 500 500" xml:space="preserve">
<path d="M362,21.2c-42.4,0-84.8,20-112.3,52.4c-27.5-32.4-69.9-52.4-112.3-52.4C60,21.2,0.1,81.1,0.1,158.5
	c0,94.8,84.8,172.2,214.6,287l34.9,32.4l34.9-32.4c129.8-117.3,214.6-194.7,214.6-287C499.3,81.1,439.4,21.2,362,21.2z M252.2,408
	l-2.5,2.5l-2.5-2.5C127.4,300.7,50.1,230.8,50.1,158.5c0-49.9,37.4-87.3,87.3-87.3c37.4,0,74.9,25,89.8,59.9h47.4
	c12.5-34.9,49.9-59.9,87.3-59.9c49.9,0,87.3,37.4,87.3,87.3C449.3,230.8,372,300.7,252.2,408z"/>
</svg>
