<?xml version="1.0" encoding="utf-8"?>
<!-- Generator: Adobe Illustrator 22.0.1, SVG Export Plug-In . SVG Version: 6.00 Build 0)  -->
<svg version="1.1" id="Layer_1" xmlns="http://www.w3.org/2000/svg" xmlns:xlink="http://www.w3.org/1999/xlink" x="0px" y="0px"
	 viewBox="0 0 500 500" style="enable-background:new 0 0 500 500;" xml:space="preserve">
<path d="M400,351.5c-19.7,0-34.4,7.4-49.1,19.7L176.4,267.9c2.5-4.9,2.5-12.3,2.5-17.2s0-12.3-2.5-17.2l174.5-100.7
	c12.3,12.3,29.5,19.7,49.1,19.7c41.8,0,73.7-31.9,73.7-73.7S441.8,5,400,5s-73.7,31.9-73.7,73.7c0,4.9,0,12.3,2.5,17.2L154.3,196.7
	C142,184.4,124.8,177,105.1,177c-41.8,0-73.7,31.9-73.7,73.7s31.9,73.7,73.7,73.7c19.7,0,36.9-7.4,49.1-19.7L328.8,408
	c-2.5,4.9-2.5,9.8-2.5,14.7c0,39.3,31.9,71.3,71.3,71.3s71.3-31.9,71.3-71.3S439.3,351.5,400,351.5z"/>
</svg>
