<?xml version="1.0" encoding="utf-8"?>
<!-- Generator: Adobe Illustrator 22.0.1, SVG Export Plug-In . SVG Version: 6.00 Build 0)  -->
<svg version="1.1" id="Layer_1" xmlns="http://www.w3.org/2000/svg" xmlns:xlink="http://www.w3.org/1999/xlink" x="0px" y="0px"
	 viewBox="0 0 500 500" style="enable-background:new 0 0 500 500;" xml:space="preserve">
<title>vr_nvidia</title>
<path id="ab1411b6-2959-43b4-84ec-5dd51f0958e3" class="st0" d="M250,100C75,100,0,250.5,0,250.5S75,400,250,400
	s250-149.5,250-149.5S425,100,250,100z M249.5,392.4c-78.7,0.2-142.6-63.4-142.9-142c-0.2-78.7,63.4-142.6,142-142.9
	c78.7-0.2,142.6,63.4,142.9,142c0,0,0,0.1,0,0.1c0,0.1,0,0.3,0,0.4c0.1,78.5-63.4,142.3-142,142.5c0,0,0,0,0,0l0,0L249.5,392.4z
	 M357,244.9v-37.2c-0.8-12.4-11.4-21.8-23.8-21.2h-85.6l-36.4,93.7l-38-93.7h-31.1l53.9,127h28.4L266.9,209h54.9
	c3.8-0.1,6.9,2.8,7.1,6.5v21.7c-0.2,3.7-3.3,6.5-7,6.3c0,0-0.1,0-0.1,0h-46.7l50.1,69.8H355L320.6,266h14.2
	c11.7,0.5,21.6-8.5,22.2-20.2C357,245.5,357,245.2,357,244.9z"/>
</svg>
